<svg id="Layer_1" data-name="Layer 1" xmlns="http://www.w3.org/2000/svg" viewBox="0 0 500 163.56"><defs><style>.cls-1{fill:#fff;}</style></defs><title>download-windows</title><path d="M2430,478.72a22.1,22.1,0,0,1-22.1,22.1H1952.1a22.11,22.11,0,0,1-22.1-22.1V359.37a22.11,22.11,0,0,1,22.1-22.1h455.8a22.1,22.1,0,0,1,22.1,22.1V478.72h0Z" transform="translate(-1930 -337.27)"/><path id="windows-os-icon" class="cls-1" d="M1968.18,418.16v-30l36.13-5.1v35.08h-36.13Zm41.25,0h48.16v-42.6l-48.16,6.8v35.8Zm-5.12,5.15h-36.13v30l36.13,5.1V423.31h0Zm5.12,0v35.8l48.16,6.8v-42.6h-48.16Z" transform="translate(-1930 -337.27)"/><path class="cls-1" d="M2091.67,448.26L2087.88,433h-0.06l-3.73,15.24h-5l-5.93-22.39h4.92l3.54,15.24h0.06l3.89-15.24h4.61L2094,441.3h0.06l3.67-15.43h4.83l-6,22.39h-4.89Z" transform="translate(-1930 -337.27)"/><path class="cls-1" d="M2104.5,429.54v-3.67H2109v3.67h-4.45ZM2109,432v16.21h-4.45V432H2109Z" transform="translate(-1930 -337.27)"/><path class="cls-1" d="M2116.7,432v2.26h0.09a5.11,5.11,0,0,1,2.2-2.05,6.36,6.36,0,0,1,2.76-.64,7.56,7.56,0,0,1,2.93.49,4.35,4.35,0,0,1,1.8,1.35,5.23,5.23,0,0,1,.92,2.1,13.07,13.07,0,0,1,.27,2.74v10h-4.45V439.1a5.68,5.68,0,0,0-.63-3,2.43,2.43,0,0,0-2.23-1,3.09,3.09,0,0,0-2.63,1.08,6,6,0,0,0-.82,3.56v8.5h-4.45V432h4.23Z" transform="translate(-1930 -337.27)"/><path class="cls-1" d="M2142.57,446.19a4.6,4.6,0,0,1-2.05,1.9,6.83,6.83,0,0,1-2.87.58,6.93,6.93,0,0,1-3.2-.71,6.42,6.42,0,0,1-2.27-1.91,8.67,8.67,0,0,1-1.35-2.78,11.67,11.67,0,0,1-.45-3.26,11,11,0,0,1,.45-3.15,8.19,8.19,0,0,1,1.35-2.68,6.54,6.54,0,0,1,5.38-2.57,6.39,6.39,0,0,1,2.74.61,4.78,4.78,0,0,1,2.05,1.8h0.06v-8.15h4.45v22.39h-4.23v-2.07h-0.06Zm-0.19-8a4.7,4.7,0,0,0-.64-1.63,3.63,3.63,0,0,0-1.18-1.15,3.45,3.45,0,0,0-1.82-.44,3.62,3.62,0,0,0-1.85.44,3.47,3.47,0,0,0-1.21,1.16,5.11,5.11,0,0,0-.66,1.65,9,9,0,0,0-.2,1.93A8.19,8.19,0,0,0,2135,442a5.1,5.1,0,0,0,.71,1.68,3.89,3.89,0,0,0,1.22,1.19,3.31,3.31,0,0,0,1.77.45,3.53,3.53,0,0,0,1.83-.44,3.35,3.35,0,0,0,1.18-1.18,5.28,5.28,0,0,0,.63-1.68,9.86,9.86,0,0,0,.19-1.94A9.61,9.61,0,0,0,2142.38,438.18Z" transform="translate(-1930 -337.27)"/><path class="cls-1" d="M2150.31,436.64a7.42,7.42,0,0,1,4.33-4.42,9.27,9.27,0,0,1,3.45-.61,9.39,9.39,0,0,1,3.46.61,7.38,7.38,0,0,1,4.34,4.42,10,10,0,0,1,.6,3.53,9.84,9.84,0,0,1-.6,3.51,7.62,7.62,0,0,1-1.69,2.68,7.38,7.38,0,0,1-2.65,1.71,9.6,9.6,0,0,1-3.46.6,9.47,9.47,0,0,1-3.45-.6,7.39,7.39,0,0,1-2.63-1.71,7.61,7.61,0,0,1-1.69-2.68,9.84,9.84,0,0,1-.6-3.51A10,10,0,0,1,2150.31,436.64Zm4,5.43a5.08,5.08,0,0,0,.64,1.66,3.43,3.43,0,0,0,1.21,1.18,3.68,3.68,0,0,0,1.88.44,3.77,3.77,0,0,0,1.9-.44,3.39,3.39,0,0,0,1.22-1.18,5.06,5.06,0,0,0,.64-1.66,9.46,9.46,0,0,0,.19-1.9,9.69,9.69,0,0,0-.19-1.91,4.89,4.89,0,0,0-.64-1.66,3.57,3.57,0,0,0-1.22-1.18,3.66,3.66,0,0,0-1.9-.46,3.58,3.58,0,0,0-1.88.46,3.62,3.62,0,0,0-1.21,1.18,4.91,4.91,0,0,0-.64,1.66,9.76,9.76,0,0,0-.19,1.91A9.53,9.53,0,0,0,2154.36,442.07Z" transform="translate(-1930 -337.27)"/><path class="cls-1" d="M2183.34,448.26l-2.89-10.88h-0.06l-2.76,10.88H2173L2167.88,432h4.7l3,11h0.06l2.7-11h4.33l2.76,11h0.06l3-11H2193l-5.11,16.21h-4.58Z" transform="translate(-1930 -337.27)"/><path class="cls-1" d="M2198.66,444.23a2.58,2.58,0,0,0,.77.85,3.3,3.3,0,0,0,1.08.49,5.05,5.05,0,0,0,1.27.16,4.71,4.71,0,0,0,1-.11,3.32,3.32,0,0,0,.94-0.34,2.12,2.12,0,0,0,.71-0.63,1.65,1.65,0,0,0,.28-1,1.67,1.67,0,0,0-1.33-1.5,26.8,26.8,0,0,0-3.72-1q-1-.22-1.9-0.52a6.48,6.48,0,0,1-1.65-.78,3.82,3.82,0,0,1-1.16-1.22,3.46,3.46,0,0,1-.44-1.8,4.88,4.88,0,0,1,.61-2.57,4.5,4.5,0,0,1,1.62-1.58,7.06,7.06,0,0,1,2.26-.82,13.88,13.88,0,0,1,2.57-.24,12.87,12.87,0,0,1,2.56.25,6.74,6.74,0,0,1,2.21.85,5.08,5.08,0,0,1,1.62,1.58,5.33,5.33,0,0,1,.77,2.49h-4.23a2,2,0,0,0-1-1.74,4.45,4.45,0,0,0-2.07-.45,7.7,7.7,0,0,0-.82,0,2.75,2.75,0,0,0-.8.2,1.66,1.66,0,0,0-.61.46,1.2,1.2,0,0,0-.25.8,1.22,1.22,0,0,0,.44,1,3.42,3.42,0,0,0,1.14.61,14.35,14.35,0,0,0,1.62.42l1.85,0.41a19,19,0,0,1,1.9.53,6.23,6.23,0,0,1,1.65.83,4,4,0,0,1,1.16,1.29,3.77,3.77,0,0,1,.44,1.9,4.93,4.93,0,0,1-2.32,4.42,6.87,6.87,0,0,1-2.37.93,13.88,13.88,0,0,1-2.71.27,13.41,13.41,0,0,1-2.76-.28,7.26,7.26,0,0,1-2.4-.94,5.39,5.39,0,0,1-1.72-1.74,5.45,5.45,0,0,1-.74-2.71h4.23A2.43,2.43,0,0,0,2198.66,444.23Z" transform="translate(-1930 -337.27)"/><path class="cls-1" d="M2231,425.87a9.34,9.34,0,0,1,3.58.61,6.7,6.7,0,0,1,2.4,1.62,6.22,6.22,0,0,1,1.35,2.29,8.57,8.57,0,0,1,0,5.32A6.19,6.19,0,0,1,2237,438a6.7,6.7,0,0,1-2.4,1.62,9.34,9.34,0,0,1-3.58.61h-5.17v8h-4.92V425.87H2231Zm-1.35,10.54a10.38,10.38,0,0,0,1.63-.12,3.81,3.81,0,0,0,1.38-.49,2.65,2.65,0,0,0,1-1,4.31,4.31,0,0,0,0-3.45,2.65,2.65,0,0,0-1-1,3.81,3.81,0,0,0-1.38-.49,10.38,10.38,0,0,0-1.63-.12h-3.83v6.71h3.83Z" transform="translate(-1930 -337.27)"/><path class="cls-1" d="M2245.84,425.87v8.44h0.09a5.15,5.15,0,0,1,2.16-2.05,5.85,5.85,0,0,1,2.57-.64,7.56,7.56,0,0,1,2.93.49,4.35,4.35,0,0,1,1.8,1.35,5.23,5.23,0,0,1,.92,2.1,13.07,13.07,0,0,1,.27,2.74v10h-4.45V439.1a5.68,5.68,0,0,0-.63-3,2.43,2.43,0,0,0-2.23-1,3.09,3.09,0,0,0-2.63,1.08,6,6,0,0,0-.82,3.56v8.5h-4.45V425.87h4.45Z" transform="translate(-1930 -337.27)"/><path class="cls-1" d="M2260.07,436.64a7.42,7.42,0,0,1,4.33-4.42,9.27,9.27,0,0,1,3.45-.61,9.39,9.39,0,0,1,3.46.61,7.38,7.38,0,0,1,4.34,4.42,10,10,0,0,1,.6,3.53,9.84,9.84,0,0,1-.6,3.51,7.62,7.62,0,0,1-1.69,2.68,7.38,7.38,0,0,1-2.65,1.71,9.6,9.6,0,0,1-3.46.6,9.47,9.47,0,0,1-3.45-.6,7.39,7.39,0,0,1-2.63-1.71,7.61,7.61,0,0,1-1.69-2.68,9.84,9.84,0,0,1-.6-3.51A10,10,0,0,1,2260.07,436.64Zm4,5.43a5.08,5.08,0,0,0,.64,1.66,3.43,3.43,0,0,0,1.21,1.18,3.68,3.68,0,0,0,1.88.44,3.77,3.77,0,0,0,1.9-.44,3.39,3.39,0,0,0,1.22-1.18,5.06,5.06,0,0,0,.64-1.66,9.46,9.46,0,0,0,.19-1.9,9.69,9.69,0,0,0-.19-1.91,4.89,4.89,0,0,0-.64-1.66,3.57,3.57,0,0,0-1.22-1.18,3.66,3.66,0,0,0-1.9-.46,3.58,3.58,0,0,0-1.88.46,3.62,3.62,0,0,0-1.21,1.18,4.91,4.91,0,0,0-.64,1.66,9.76,9.76,0,0,0-.19,1.91A9.53,9.53,0,0,0,2264.12,442.07Z" transform="translate(-1930 -337.27)"/><path class="cls-1" d="M2283.38,432v2.26h0.09a5.11,5.11,0,0,1,2.2-2.05,6.36,6.36,0,0,1,2.76-.64,7.56,7.56,0,0,1,2.93.49,4.35,4.35,0,0,1,1.8,1.35,5.23,5.23,0,0,1,.92,2.1,13.07,13.07,0,0,1,.27,2.74v10h-4.45V439.1a5.68,5.68,0,0,0-.63-3,2.43,2.43,0,0,0-2.23-1,3.09,3.09,0,0,0-2.63,1.08,6,6,0,0,0-.82,3.56v8.5h-4.45V432h4.23Z" transform="translate(-1930 -337.27)"/><path class="cls-1" d="M2302.5,444.37a4.57,4.57,0,0,0,5.21.3,2.8,2.8,0,0,0,1.19-1.43h3.92a7.45,7.45,0,0,1-2.89,4.17,8.49,8.49,0,0,1-4.7,1.25,9.24,9.24,0,0,1-3.45-.61,7.17,7.17,0,0,1-2.6-1.74,7.83,7.83,0,0,1-1.65-2.7,9.87,9.87,0,0,1-.58-3.45,9.48,9.48,0,0,1,.6-3.39,7.85,7.85,0,0,1,4.31-4.52,8.41,8.41,0,0,1,3.37-.66,7.71,7.71,0,0,1,3.61.8,7.2,7.2,0,0,1,2.52,2.15,8.83,8.83,0,0,1,1.43,3.07,11.48,11.48,0,0,1,.31,3.61h-11.7A4.5,4.5,0,0,0,2302.5,444.37Zm5-8.53a3.13,3.13,0,0,0-2.43-.88,3.88,3.88,0,0,0-1.77.36,3.4,3.4,0,0,0-1.13.89,3.29,3.29,0,0,0-.6,1.13,5.06,5.06,0,0,0-.2,1.07h7.25A5.16,5.16,0,0,0,2307.54,435.84Z" transform="translate(-1930 -337.27)"/><path class="cls-1" d="M2328.69,442.74a3.57,3.57,0,0,0,1.08,1.27,4.67,4.67,0,0,0,1.58.72,7.47,7.47,0,0,0,1.88.24,9.8,9.8,0,0,0,1.41-.11,4.91,4.91,0,0,0,1.41-.42,3.07,3.07,0,0,0,1.1-.86,2.16,2.16,0,0,0,.44-1.4,2,2,0,0,0-.58-1.47,4.61,4.61,0,0,0-1.52-.94,15.19,15.19,0,0,0-2.13-.66q-1.19-.28-2.41-0.63a21.44,21.44,0,0,1-2.45-.77,8.39,8.39,0,0,1-2.13-1.18,5.53,5.53,0,0,1-1.52-1.8,5.46,5.46,0,0,1-.58-2.62,5.86,5.86,0,0,1,.74-3,6.67,6.67,0,0,1,1.93-2.12,8.39,8.39,0,0,1,2.7-1.25,11.48,11.48,0,0,1,3-.41,14.23,14.23,0,0,1,3.37.39,8.4,8.4,0,0,1,2.87,1.27,6.45,6.45,0,0,1,2,2.24,6.89,6.89,0,0,1,.74,3.31h-4.77a4,4,0,0,0-.42-1.66,2.78,2.78,0,0,0-1-1,4.09,4.09,0,0,0-1.36-.53,8.48,8.48,0,0,0-1.68-.16,5.8,5.8,0,0,0-1.19.13,3.19,3.19,0,0,0-1.08.44,2.72,2.72,0,0,0-.8.78,2.11,2.11,0,0,0-.31,1.19,2,2,0,0,0,.25,1.07,2.24,2.24,0,0,0,1,.75,12.52,12.52,0,0,0,2,.69l3.4,0.88q0.63,0.13,1.74.46a8.37,8.37,0,0,1,2.21,1.05,6.7,6.7,0,0,1,1.9,1.93,5.49,5.49,0,0,1,.8,3.09,6.85,6.85,0,0,1-.6,2.85,6.2,6.2,0,0,1-1.77,2.27,8.51,8.51,0,0,1-2.92,1.49,13.79,13.79,0,0,1-4,.53,14.17,14.17,0,0,1-3.59-.46,9,9,0,0,1-3.07-1.43,7,7,0,0,1-2.12-2.48,7.39,7.39,0,0,1-.75-3.58h4.77A4.11,4.11,0,0,0,2328.69,442.74Z" transform="translate(-1930 -337.27)"/><path class="cls-1" d="M2353.72,432v3h-3.26v8a1.51,1.51,0,0,0,1.88,1.88q0.38,0,.72,0a6.1,6.1,0,0,0,.66-0.09v3.45a10.57,10.57,0,0,1-1.25.13q-0.69,0-1.35,0a13,13,0,0,1-2-.14,4.6,4.6,0,0,1-1.63-.55,2.9,2.9,0,0,1-1.11-1.16,4.13,4.13,0,0,1-.41-2V435h-2.7v-3h2.7v-4.86h4.45V432h3.26Z" transform="translate(-1930 -337.27)"/><path class="cls-1" d="M2355.94,436.64a7.42,7.42,0,0,1,4.33-4.42,9.27,9.27,0,0,1,3.45-.61,9.39,9.39,0,0,1,3.46.61,7.38,7.38,0,0,1,4.34,4.42,10,10,0,0,1,.6,3.53,9.84,9.84,0,0,1-.6,3.51,7.62,7.62,0,0,1-1.69,2.68,7.38,7.38,0,0,1-2.65,1.71,9.6,9.6,0,0,1-3.46.6,9.47,9.47,0,0,1-3.45-.6,7.39,7.39,0,0,1-2.63-1.71,7.61,7.61,0,0,1-1.69-2.68,9.84,9.84,0,0,1-.6-3.51A10,10,0,0,1,2355.94,436.64Zm4,5.43a5.08,5.08,0,0,0,.64,1.66,3.43,3.43,0,0,0,1.21,1.18,3.68,3.68,0,0,0,1.88.44,3.77,3.77,0,0,0,1.9-.44,3.39,3.39,0,0,0,1.22-1.18,5.06,5.06,0,0,0,.64-1.66,9.46,9.46,0,0,0,.19-1.9,9.69,9.69,0,0,0-.19-1.91,4.89,4.89,0,0,0-.64-1.66,3.57,3.57,0,0,0-1.22-1.18,3.66,3.66,0,0,0-1.9-.46,3.58,3.58,0,0,0-1.88.46,3.62,3.62,0,0,0-1.21,1.18,4.91,4.91,0,0,0-.64,1.66,9.76,9.76,0,0,0-.19,1.91A9.53,9.53,0,0,0,2360,442.07Z" transform="translate(-1930 -337.27)"/><path class="cls-1" d="M2379.24,432v3h0.06a5.42,5.42,0,0,1,.85-1.4,5.58,5.58,0,0,1,1.22-1.1,6,6,0,0,1,1.47-.71,5.33,5.33,0,0,1,1.63-.25,3.47,3.47,0,0,1,1,.16v4.14c-0.21,0-.46-0.08-0.75-0.11a8,8,0,0,0-.85,0,4.75,4.75,0,0,0-2.07.41,3.6,3.6,0,0,0-1.36,1.11,4.46,4.46,0,0,0-.74,1.65,9,9,0,0,0-.22,2v7.31H2375V432h4.23Z" transform="translate(-1930 -337.27)"/><path class="cls-1" d="M2391.41,444.37a4.57,4.57,0,0,0,5.21.3,2.8,2.8,0,0,0,1.19-1.43h3.92a7.45,7.45,0,0,1-2.89,4.17,8.49,8.49,0,0,1-4.7,1.25,9.24,9.24,0,0,1-3.45-.61,7.17,7.17,0,0,1-2.6-1.74,7.83,7.83,0,0,1-1.65-2.7,9.87,9.87,0,0,1-.58-3.45,9.48,9.48,0,0,1,.6-3.39,7.85,7.85,0,0,1,4.31-4.52,8.41,8.41,0,0,1,3.37-.66,7.71,7.71,0,0,1,3.61.8,7.2,7.2,0,0,1,2.52,2.15,8.83,8.83,0,0,1,1.43,3.07,11.48,11.48,0,0,1,.31,3.61h-11.7A4.5,4.5,0,0,0,2391.41,444.37Zm5-8.53A3.13,3.13,0,0,0,2394,435a3.88,3.88,0,0,0-1.77.36,3.4,3.4,0,0,0-1.13.89,3.29,3.29,0,0,0-.6,1.13,5.06,5.06,0,0,0-.2,1.07h7.25A5.16,5.16,0,0,0,2396.45,435.84Z" transform="translate(-1930 -337.27)"/><path class="cls-1" d="M2075.39,393h9a10.15,10.15,0,0,1,4.33.85,8.05,8.05,0,0,1,3,2.33,10,10,0,0,1,1.72,3.46,16.21,16.21,0,0,1,0,8.47,10,10,0,0,1-1.72,3.46,8,8,0,0,1-3,2.33,10.15,10.15,0,0,1-4.33.85h-9V393Zm3.81,18.65h3.75a9.5,9.5,0,0,0,3.64-.59,5.33,5.33,0,0,0,2.23-1.65,6,6,0,0,0,1.1-2.47,16.32,16.32,0,0,0,0-6.13,5.94,5.94,0,0,0-1.1-2.47,5.33,5.33,0,0,0-2.23-1.65,9.5,9.5,0,0,0-3.64-.59h-3.75v15.54Z" transform="translate(-1930 -337.27)"/><path class="cls-1" d="M2104.13,415.19a8.59,8.59,0,0,1-3.37-.62,7.17,7.17,0,0,1-2.5-1.72,7.35,7.35,0,0,1-1.55-2.62,10.71,10.71,0,0,1,0-6.67,7.35,7.35,0,0,1,1.55-2.62,7.18,7.18,0,0,1,2.5-1.72,9.4,9.4,0,0,1,6.74,0,7.19,7.19,0,0,1,2.5,1.72,7.37,7.37,0,0,1,1.55,2.62,10.71,10.71,0,0,1,0,6.67,7.36,7.36,0,0,1-1.55,2.62,7.17,7.17,0,0,1-2.5,1.72A8.59,8.59,0,0,1,2104.13,415.19Zm0-2.74a4,4,0,0,0,2-.49,4.25,4.25,0,0,0,1.4-1.28,5.6,5.6,0,0,0,.81-1.78,8,8,0,0,0,0-4,5.42,5.42,0,0,0-.81-1.78,4.32,4.32,0,0,0-1.4-1.26,4.4,4.4,0,0,0-4,0,4.31,4.31,0,0,0-1.4,1.26,5.42,5.42,0,0,0-.81,1.78,8,8,0,0,0,0,4,5.6,5.6,0,0,0,.81,1.78,4.24,4.24,0,0,0,1.4,1.28A4,4,0,0,0,2104.13,412.45Z" transform="translate(-1930 -337.27)"/><path class="cls-1" d="M2113.55,399h3.69l3.08,11.76h0.06l3-11.76h3.5l2.83,11.76h0.06l3.2-11.76h3.54l-4.94,15.76H2128l-2.93-11.7H2125l-2.9,11.7h-3.66Z" transform="translate(-1930 -337.27)"/><path class="cls-1" d="M2138.7,399H2142v2.32l0.06,0.06a5.83,5.83,0,0,1,2.07-2.06,5.53,5.53,0,0,1,2.83-.75,5.89,5.89,0,0,1,4.08,1.34,5.13,5.13,0,0,1,1.49,4v10.82h-3.47v-9.91a4.28,4.28,0,0,0-.79-2.7,2.88,2.88,0,0,0-2.29-.84,3.78,3.78,0,0,0-1.58.32,3.44,3.44,0,0,0-1.19.88,4.15,4.15,0,0,0-.76,1.33,4.72,4.72,0,0,0-.27,1.62v9.3h-3.47V399Z" transform="translate(-1930 -337.27)"/><path class="cls-1" d="M2156.28,393h3.47v21.76h-3.47V393Z" transform="translate(-1930 -337.27)"/><path class="cls-1" d="M2170.76,415.19a8.59,8.59,0,0,1-3.37-.62,7.17,7.17,0,0,1-2.5-1.72,7.35,7.35,0,0,1-1.55-2.62,10.71,10.71,0,0,1,0-6.67,7.35,7.35,0,0,1,1.55-2.62,7.18,7.18,0,0,1,2.5-1.72,9.4,9.4,0,0,1,6.74,0,7.19,7.19,0,0,1,2.5,1.72,7.37,7.37,0,0,1,1.55,2.62,10.71,10.71,0,0,1,0,6.67,7.36,7.36,0,0,1-1.55,2.62,7.17,7.17,0,0,1-2.5,1.72A8.59,8.59,0,0,1,2170.76,415.19Zm0-2.74a4,4,0,0,0,2-.49,4.25,4.25,0,0,0,1.4-1.28,5.6,5.6,0,0,0,.81-1.78,8,8,0,0,0,0-4,5.42,5.42,0,0,0-.81-1.78,4.32,4.32,0,0,0-1.4-1.26,4.4,4.4,0,0,0-4,0,4.31,4.31,0,0,0-1.4,1.26,5.42,5.42,0,0,0-.81,1.78,8,8,0,0,0,0,4,5.6,5.6,0,0,0,.81,1.78,4.24,4.24,0,0,0,1.4,1.28A4,4,0,0,0,2170.76,412.45Z" transform="translate(-1930 -337.27)"/><path class="cls-1" d="M2194.81,411.26a1.83,1.83,0,0,0,.17.91,0.71,0.71,0,0,0,.66.27H2196a2.26,2.26,0,0,0,.49-0.06v2.41l-0.47.14-0.59.14q-0.31.06-.61,0.09l-0.52,0a3.35,3.35,0,0,1-1.77-.43,2.12,2.12,0,0,1-.91-1.49,6.15,6.15,0,0,1-2.54,1.46,10,10,0,0,1-2.91.46,7.13,7.13,0,0,1-2-.29,5.33,5.33,0,0,1-1.72-.85,4.08,4.08,0,0,1-1.19-1.43,4.41,4.41,0,0,1-.44-2,4.69,4.69,0,0,1,.53-2.38,4,4,0,0,1,1.4-1.43,6.32,6.32,0,0,1,2-.75q1.08-.23,2.18-0.35a17.79,17.79,0,0,1,1.8-.26,8.41,8.41,0,0,0,1.51-.26,2.32,2.32,0,0,0,1-.56,1.55,1.55,0,0,0,.38-1.14,1.78,1.78,0,0,0-.32-1.1,2.14,2.14,0,0,0-.79-0.66,3.42,3.42,0,0,0-1.05-.3,8.44,8.44,0,0,0-1.1-.08,4.37,4.37,0,0,0-2.41.61,2.38,2.38,0,0,0-1.07,1.89h-3.47a5.23,5.23,0,0,1,.73-2.53,5.06,5.06,0,0,1,1.63-1.62,6.68,6.68,0,0,1,2.24-.85,13.37,13.37,0,0,1,2.56-.24,10.81,10.81,0,0,1,2.29.24,6.5,6.5,0,0,1,2,.79,4.39,4.39,0,0,1,1.45,1.42,3.89,3.89,0,0,1,.55,2.12v8.11Zm-3.47-4.39a4.22,4.22,0,0,1-2,.63q-1.16.11-2.32,0.32a7.43,7.43,0,0,0-1.07.26,3.23,3.23,0,0,0-.91.46,2,2,0,0,0-.62.76,2.6,2.6,0,0,0-.23,1.14,1.46,1.46,0,0,0,.33,1,2.45,2.45,0,0,0,.81.63,3.73,3.73,0,0,0,1,.32,6.36,6.36,0,0,0,1,.09,5.67,5.67,0,0,0,1.25-.15,4.16,4.16,0,0,0,1.26-.52,3.3,3.3,0,0,0,1-.93,2.35,2.35,0,0,0,.4-1.39v-2.59Z" transform="translate(-1930 -337.27)"/><path class="cls-1" d="M2213.4,414.77h-3.29v-2.13H2210a4.12,4.12,0,0,1-2,2,6.92,6.92,0,0,1-2.83.59,7.53,7.53,0,0,1-3.25-.66,6.47,6.47,0,0,1-2.3-1.78,7.63,7.63,0,0,1-1.37-2.67,11.53,11.53,0,0,1-.46-3.31,10.57,10.57,0,0,1,.58-3.69,7.38,7.38,0,0,1,1.54-2.56,6,6,0,0,1,2.19-1.48,7,7,0,0,1,2.51-.47,8.38,8.38,0,0,1,1.49.14,6.61,6.61,0,0,1,1.46.44,5.75,5.75,0,0,1,1.3.78,4.28,4.28,0,0,1,1,1.11h0.06v-8h3.47v21.76Zm-12.13-7.71a7.67,7.67,0,0,0,.26,2,5.41,5.41,0,0,0,.79,1.74,4,4,0,0,0,1.36,1.22,4,4,0,0,0,2,.46,3.9,3.9,0,0,0,2-.49,4.15,4.15,0,0,0,1.37-1.28,5.8,5.8,0,0,0,.79-1.78,8,8,0,0,0,.26-2,6.37,6.37,0,0,0-1.17-4.08,3.87,3.87,0,0,0-3.19-1.46,3.93,3.93,0,0,0-2.06.5,4.23,4.23,0,0,0-1.37,1.31,5.45,5.45,0,0,0-.76,1.83A9.54,9.54,0,0,0,2201.27,407.05Z" transform="translate(-1930 -337.27)"/><path class="cls-1" d="M2224.1,399h2.59V397.7a6.74,6.74,0,0,1,.37-2.42,3.46,3.46,0,0,1,1-1.43,3.21,3.21,0,0,1,1.39-.67A7.68,7.68,0,0,1,2231,393a10,10,0,0,1,2.44.21v2.71a5,5,0,0,0-.72-0.14,7.73,7.73,0,0,0-.9,0,2.13,2.13,0,0,0-1.2.33,1.47,1.47,0,0,0-.5,1.31V399h3v2.59h-3v13.17h-3.47V401.6h-2.59V399Z" transform="translate(-1930 -337.27)"/><path class="cls-1" d="M2235.26,399h3.26v3h0.06a3.53,3.53,0,0,1,.59-1.25,5.79,5.79,0,0,1,1.07-1.11,5.36,5.36,0,0,1,1.39-.81,4.15,4.15,0,0,1,1.55-.3,7.5,7.5,0,0,1,.84,0l0.47,0.06V402l-0.75-.11a6.31,6.31,0,0,0-.75,0,4,4,0,0,0-1.66.35,3.82,3.82,0,0,0-1.36,1,5.06,5.06,0,0,0-.92,1.69,7.32,7.32,0,0,0-.33,2.32v7.5h-3.47V399Z" transform="translate(-1930 -337.27)"/><path class="cls-1" d="M2252.66,415.19a8.59,8.59,0,0,1-3.37-.62,7.17,7.17,0,0,1-2.5-1.72,7.35,7.35,0,0,1-1.55-2.62,10.71,10.71,0,0,1,0-6.67,7.35,7.35,0,0,1,1.55-2.62,7.18,7.18,0,0,1,2.5-1.72,9.4,9.4,0,0,1,6.74,0,7.19,7.19,0,0,1,2.5,1.72,7.37,7.37,0,0,1,1.55,2.62,10.71,10.71,0,0,1,0,6.67,7.36,7.36,0,0,1-1.55,2.62,7.17,7.17,0,0,1-2.5,1.72A8.59,8.59,0,0,1,2252.66,415.19Zm0-2.74a4,4,0,0,0,2-.49,4.25,4.25,0,0,0,1.4-1.28,5.6,5.6,0,0,0,.81-1.78,8,8,0,0,0,0-4,5.42,5.42,0,0,0-.81-1.78,4.32,4.32,0,0,0-1.4-1.26,4.4,4.4,0,0,0-4,0,4.31,4.31,0,0,0-1.4,1.26,5.42,5.42,0,0,0-.81,1.78,8,8,0,0,0,0,4,5.6,5.6,0,0,0,.81,1.78,4.24,4.24,0,0,0,1.4,1.28A4,4,0,0,0,2252.66,412.45Z" transform="translate(-1930 -337.27)"/><path class="cls-1" d="M2263.51,399h3.29v2.19h0.09a8.93,8.93,0,0,1,.85-1.07,4.66,4.66,0,0,1,1-.82,5.18,5.18,0,0,1,1.29-.53,6.45,6.45,0,0,1,1.68-.2,5.71,5.71,0,0,1,2.67.64,3.62,3.62,0,0,1,1.75,2,7,7,0,0,1,2-1.92,5.51,5.51,0,0,1,2.9-.7,5.69,5.69,0,0,1,3.89,1.22q1.39,1.22,1.39,4.08v10.88h-3.47v-9.21q0-.94-0.06-1.72a3.54,3.54,0,0,0-.35-1.34,2,2,0,0,0-.87-0.87,3.43,3.43,0,0,0-1.58-.3,2.94,2.94,0,0,0-2.56,1.1,5.24,5.24,0,0,0-.79,3.11v9.24h-3.47V404.65a4.29,4.29,0,0,0-.59-2.48,2.5,2.5,0,0,0-2.18-.84,3.18,3.18,0,0,0-1.3.27,3.22,3.22,0,0,0-1.1.79,4,4,0,0,0-.76,1.28,4.86,4.86,0,0,0-.29,1.74v9.36h-3.47V399Z" transform="translate(-1930 -337.27)"/></svg>